<svg xmlns="http://www.w3.org/2000/svg" viewBox="0 0 280.52 64.26"><defs><style>.cls-1{font-size:49.28px;font-family:Valken, Valken;}.cls-1,.cls-3{fill:#3f91ff;}.cls-2{fill:#9cd1ff;}</style></defs><title>logo1</title><g id="Layer_2" data-name="Layer 2"><g id="Layer_1-2" data-name="Layer 1"><text class="cls-1" transform="translate(72.9 49.96) scale(0.75 1)">Source<tspan class="cls-2" x="170.16" y="0">Dev </tspan></text><path class="cls-2" d="M32.89,17.79l-.83-1L26.28,9.93l-.1-.12L13.95,12.54,10,25.15l6,6.15,1.17,1.2,2.09,2.13,4.46-4.48,1.39,5.34a.59.59,0,0,0,.16.27L28,38.34l-6.37,6a3.49,3.49,0,0,1-4.84-.06L10.46,38,6.25,33.87,1,28.72a3.42,3.42,0,0,1-.88-3.43L5.81,6.55A3.46,3.46,0,0,1,8.42,4.18L26,.47a3.38,3.38,0,0,1,4,2.4l.82,3,2.63,9.73.45,1.65A.55.55,0,0,1,32.89,17.79Z"/><path class="cls-2" d="M65.07,39.08,59.68,57.62A3.49,3.49,0,0,1,57,60l-17.47,3.7a3.5,3.5,0,0,1-4.09-2.41l-1-3.39-2.78-9.49-.6-2.06a.38.38,0,0,1,.65-.36l1.16,1.28,5.83,6.44.56.62,12.23-2.73,3.58-12.3-5.78-6.39,9.72-2.76,5.25,5.68A3.35,3.35,0,0,1,65.07,39.08Z"/><path class="cls-2" d="M59.06,30.18l-9.72,2.76-1.17-1.3-1.7-1.88L34.73,32.38l-.51.11L28,38.34l-2.66-2.58a.59.59,0,0,1-.16-.27l-1.39-5.34L29,24.88l2.47-.63,15.81-4a3.59,3.59,0,0,1,3.51,1l4.09,4.43Z"/><path class="cls-3" d="M17.22,32.49,16,31.3,17.34,31a.58.58,0,0,1,.52,1Z"/><path class="cls-3" d="M34.49,57.94l-5.38,5.3a3.54,3.54,0,0,1-3.48.87l-19-5.58A3.45,3.45,0,0,1,4.21,56L.44,38.67a3.33,3.33,0,0,1,2.43-3.91l3.38-.89L10.46,38l-.26.21a.58.58,0,0,0-.2.58l2.61,11.37a.59.59,0,0,0,.4.43l12.14,3.68a.59.59,0,0,0,.57-.14l6-5.7Z"/><path class="cls-3" d="M44.45,48.12l-5.71,5.62-5.83-6.44,1.74-1.66a.59.59,0,0,0,0-.84L28,38.34l-2.66-2.58a.59.59,0,0,1-.16-.27l-1.39-5.34L20.51,17.63a3.47,3.47,0,0,1,1-3.46l4.73-4.24,5.78,6.88-1.63,1.43a.59.59,0,0,0-.18.57l1.25,5.44,1.41,6.12a.59.59,0,0,0,.15.27l1.68,1.74,9.79,10.14A4,4,0,0,1,44.45,48.12Z"/><path class="cls-3" d="M62.2,29.29l-3.15.89-9.72,2.76-1.42.4a.59.59,0,0,1-.55-1l.79-.7,6.71-5.9,0,0a.59.59,0,0,0,.14-.53L52.44,13.8a.59.59,0,0,0-.41-.43L40.19,10a.58.58,0,0,0-.54.12l-6.25,5.49L30.76,5.91l5.6-5A3.47,3.47,0,0,1,39.62.13L58.44,5.45A3.47,3.47,0,0,1,60.9,8l3.75,17.22A3.44,3.44,0,0,1,62.2,29.29Z"/></g></g></svg>