<svg xmlns="http://www.w3.org/2000/svg" viewBox="0 0 405.57 74.07"><defs><style>.cls-1{fill:#fff;opacity:0.7;}</style></defs><title>logo-dark-name</title><g id="Layer_2" data-name="Layer 2"><g id="Layer_4" data-name="Layer 4"><path class="cls-1" d="M32.13,0H56.64a15,15,0,0,1,15,15v0a0,0,0,0,1,0,0H17.16a0,0,0,0,1,0,0v0A15,15,0,0,1,32.13,0Z"/><path class="cls-1" d="M17.16,28.86H56.64a15,15,0,0,1,15,15v0a0,0,0,0,1,0,0H32.13a15,15,0,0,1-15-15v0A0,0,0,0,1,17.16,28.86Z"/><path class="cls-1" d="M17.16,59.09H71.62a0,0,0,0,1,0,0v0a15,15,0,0,1-15,15H32.13a15,15,0,0,1-15-15v0a0,0,0,0,1,0,0Z"/><path class="cls-1" d="M74.88,29.68H87.14a15,15,0,0,1,15,15v0a0,0,0,0,1,0,0H59.91a0,0,0,0,1,0,0v0A15,15,0,0,1,74.88,29.68Z" transform="translate(118.18 -43.84) rotate(90)"/><path class="cls-1" d="M-13.62,29.68H28.59a0,0,0,0,1,0,0v0a15,15,0,0,1-15,15H1.36a15,15,0,0,1-15-15v0a0,0,0,0,1,0,0Z" transform="translate(44.66 29.68) rotate(90)"/><path class="cls-1" d="M113.11,21.16h16a6.42,6.42,0,0,1,6.42,6.42v0a0,0,0,0,1,0,0H106.69a0,0,0,0,1,0,0v0A6.42,6.42,0,0,1,113.11,21.16Z"/><path class="cls-1" d="M106.69,33.53h22.41A6.42,6.42,0,0,1,135.51,40v0a0,0,0,0,1,0,0H113.11a6.42,6.42,0,0,1-6.42-6.42v0a0,0,0,0,1,0,0Z"/><path class="cls-1" d="M106.69,46.49h28.83a0,0,0,0,1,0,0v0a6.42,6.42,0,0,1-6.42,6.42h-16a6.42,6.42,0,0,1-6.42-6.42v0A0,0,0,0,1,106.69,46.49Z"/><path class="cls-1" d="M144.85,21.16h16a6.42,6.42,0,0,1,6.42,6.42v0a0,0,0,0,1,0,0H138.43a0,0,0,0,1,0,0v0A6.42,6.42,0,0,1,144.85,21.16Z"/><rect class="cls-1" x="134.33" y="33.82" width="15.87" height="6.42" transform="translate(105.23 179.3) rotate(-90)"/><rect class="cls-1" x="155.49" y="33.82" width="15.87" height="6.42" transform="translate(126.39 200.46) rotate(-90)"/><path class="cls-1" d="M138.43,46.49h28.83a0,0,0,0,1,0,0v0a6.42,6.42,0,0,1-6.42,6.42h-16a6.42,6.42,0,0,1-6.42-6.42v0a0,0,0,0,1,0,0Z"/><path class="cls-1" d="M248,21.16h16a6.42,6.42,0,0,1,6.42,6.42v0a0,0,0,0,1,0,0H241.6a0,0,0,0,1,0,0v0A6.42,6.42,0,0,1,248,21.16Z"/><rect class="cls-1" x="237.49" y="33.82" width="15.87" height="6.42" transform="translate(208.39 282.46) rotate(-90)"/><path class="cls-1" d="M241.6,46.49h28.83a0,0,0,0,1,0,0v0A6.42,6.42,0,0,1,264,52.91H248a6.42,6.42,0,0,1-6.42-6.42v0A0,0,0,0,1,241.6,46.49Z"/><path class="cls-1" d="M302.3,29.86h17.39a6.42,6.42,0,0,1,6.42,6.42v0a0,0,0,0,1,0,0H302.3a0,0,0,0,1,0,0V29.86A0,0,0,0,1,302.3,29.86Z" transform="translate(281.14 347.27) rotate(-90)"/><path class="cls-1" d="M328.09,26.09,338.58,45h-6.42L318.93,21.16h.78A9.59,9.59,0,0,1,328.09,26.09Z"/><path class="cls-1" d="M310.37,46.49H339.2a0,0,0,0,1,0,0v0a6.42,6.42,0,0,1-6.42,6.42h-16a6.42,6.42,0,0,1-6.42-6.42v0a0,0,0,0,1,0,0Z"/><path class="cls-1" d="M282.4,21.16h16a6.42,6.42,0,0,1,6.42,6.42v0a0,0,0,0,1,0,0H276a0,0,0,0,1,0,0v0A6.42,6.42,0,0,1,282.4,21.16Z"/><rect class="cls-1" x="271.88" y="33.82" width="15.87" height="6.42" transform="translate(242.78 316.85) rotate(-90)"/><rect class="cls-1" x="286.29" y="33.82" width="17.33" height="6.42"/><path class="cls-1" d="M276,46.49h28.83a0,0,0,0,1,0,0v0a6.42,6.42,0,0,1-6.42,6.42h-16A6.42,6.42,0,0,1,276,46.49v0a0,0,0,0,1,0,0Z"/><path class="cls-1" d="M351.18,21.16h16a6.42,6.42,0,0,1,6.42,6.42v0a0,0,0,0,1,0,0H344.76a0,0,0,0,1,0,0v0a6.42,6.42,0,0,1,6.42-6.42Z"/><rect class="cls-1" x="340.66" y="33.82" width="15.87" height="6.42" transform="translate(311.56 385.63) rotate(-90)"/><rect class="cls-1" x="355.07" y="33.82" width="17.33" height="6.42"/><path class="cls-1" d="M344.76,46.49h28.83a0,0,0,0,1,0,0v0a6.42,6.42,0,0,1-6.42,6.42h-16a6.42,6.42,0,0,1-6.42-6.42v0A0,0,0,0,1,344.76,46.49Z"/><path class="cls-1" d="M405.33,27.25,399.42,45H393l7.94-23.81h0A4.63,4.63,0,0,1,405.33,27.25Z"/><path class="cls-1" d="M383.83,21.16,392.11,45h-6.7l-6.08-17.48a4.76,4.76,0,0,1,4.5-6.33Z"/><path class="cls-1" d="M384.44,46.49H400a0,0,0,0,1,0,0v1.7a4.72,4.72,0,0,1-4.72,4.72h-6.16a4.72,4.72,0,0,1-4.72-4.72v-1.7A0,0,0,0,1,384.44,46.49Z"/><path class="cls-1" d="M213.63,21.16h16A6.42,6.42,0,0,1,236,27.58v0a0,0,0,0,1,0,0H207.21a0,0,0,0,1,0,0v0a6.42,6.42,0,0,1,6.42-6.42Z"/><path class="cls-1" d="M222,40.41h12.37a5.9,5.9,0,0,1,5.9,5.9v.52a0,0,0,0,1,0,0H216.14a0,0,0,0,1,0,0v-.52A5.9,5.9,0,0,1,222,40.41Z" transform="translate(97.69 -148.6) rotate(45)"/><path class="cls-1" d="M226.6,30.87h7.2a4,4,0,0,1,4,4v.59A1.83,1.83,0,0,1,236,37.29H226.6a0,0,0,0,1,0,0V30.87A0,0,0,0,1,226.6,30.87Z" transform="translate(266.28 -198.12) rotate(90)"/><rect class="cls-1" x="199.14" y="37.79" width="23.81" height="6.42" transform="translate(170.04 252.04) rotate(-90)"/><path class="cls-1" d="M164.75,29.86h23.81a0,0,0,0,1,0,0v0a6.42,6.42,0,0,1-6.42,6.42H164.75a0,0,0,0,1,0,0V29.86A0,0,0,0,1,164.75,29.86Z" transform="translate(143.58 209.72) rotate(-90)"/><path class="cls-1" d="M185.91,29.86H203.3a6.42,6.42,0,0,1,6.42,6.42v0a0,0,0,0,1,0,0H185.91a0,0,0,0,1,0,0V29.86A0,0,0,0,1,185.91,29.86Z" transform="translate(164.75 230.88) rotate(-90)"/><path class="cls-1" d="M172.82,46.49h28.83a0,0,0,0,1,0,0v0a6.42,6.42,0,0,1-6.42,6.42h-16a6.42,6.42,0,0,1-6.42-6.42v0a0,0,0,0,1,0,0Z"/></g></g></svg>