<svg xmlns="http://www.w3.org/2000/svg" viewBox="0 0 421 352.34"><defs><style>.cls-1{fill:#fff;opacity:0.7;}</style></defs><title>logo-dark</title><g id="Layer_2" data-name="Layer 2"><g id="Layer_4" data-name="Layer 4"><path class="cls-1" d="M152.86,0H269.44a71.25,71.25,0,0,1,71.25,71.25v0a0,0,0,0,1,0,0H81.61a0,0,0,0,1,0,0v0A71.25,71.25,0,0,1,152.86,0Z"/><path class="cls-1" d="M81.61,137.31H269.44a71.25,71.25,0,0,1,71.25,71.25v0a0,0,0,0,1,0,0H152.86a71.25,71.25,0,0,1-71.25-71.25v0A0,0,0,0,1,81.61,137.31Z"/><path class="cls-1" d="M81.61,281.1H340.69a0,0,0,0,1,0,0v0a71.25,71.25,0,0,1-71.25,71.25H152.86A71.25,71.25,0,0,1,81.61,281.1v0a0,0,0,0,1,0,0Z"/><path class="cls-1" d="M356.23,141.2h58.29a71.25,71.25,0,0,1,71.25,71.25v0a0,0,0,0,1,0,0H285a0,0,0,0,1,0,0v0A71.25,71.25,0,0,1,356.23,141.2Z" transform="translate(562.2 -208.56) rotate(90)"/><path class="cls-1" d="M-64.77,141.2H136a0,0,0,0,1,0,0v0a71.25,71.25,0,0,1-71.25,71.25H6.48A71.25,71.25,0,0,1-64.77,141.2v0a0,0,0,0,1,0,0Z" transform="translate(212.44 141.2) rotate(90)"/></g></g></svg>